<?xml version="1.0" encoding="utf-8"?>
<!-- Generator: Adobe Illustrator 16.0.0, SVG Export Plug-In . SVG Version: 6.00 Build 0)  -->
<!DOCTYPE svg PUBLIC "-//W3C//DTD SVG 1.1//EN" "http://www.w3.org/Graphics/SVG/1.1/DTD/svg11.dtd">
<svg version="1.1" id="Layer_1" xmlns="http://www.w3.org/2000/svg" xmlns:xlink="http://www.w3.org/1999/xlink" x="0px" y="0px"
	 width="110.697px" height="110.697px" viewBox="0 0 110.697 110.697" enable-background="new 0 0 110.697 110.697"
	 xml:space="preserve">
<path fill="#FF0000" d="M89.295,32.009l19.179-17.912c0,0,1.109-1.018,1.63-1.896c0.52-0.877,0.581-2.121,0.581-2.121V1.268
	c0,0,0.066-0.968-0.11-1.145s-1.148-0.11-1.148-0.11h-8.809c0,0-1.244,0.062-2.122,0.581S96.6,2.223,96.6,2.223l-17.912,19.18
	l-73.362,0.53L0,27.259c0,0,0.139,0.714,0.25,0.75c6.577,2.106,53.664,17.279,53.335,19.911c-0.354,2.828-15.91,17.324-15.91,17.324
	l-21.213,0.354l-5.569,6.211c0,0-0.341,0.496,0.252,0.704s15.217,5.46,15.217,5.46l-3.889,3.889v6.364h6.364l3.889-3.89
	c0,0,5.251,14.624,5.46,15.218c0.208,0.593,0.704,0.252,0.704,0.252l6.21-5.57l0.354-21.213c0,0,14.496-15.556,17.324-15.91
	c2.631-0.329,17.804,46.758,19.911,53.335c0.035,0.111,0.75,0.25,0.75,0.25l5.325-5.325L89.295,32.009z"/>
<path fill="#565454" d="M8.43,79.229c0,0.162-0.086,0.305-0.215,0.385c-0.069,0.043-0.15,0.068-0.238,0.068
	c-0.25,0-0.453-0.203-0.453-0.453s0.203-0.453,0.453-0.453S8.43,78.979,8.43,79.229z"/>
</svg>
