<?xml version="1.0" standalone="no"?>
<!DOCTYPE svg PUBLIC "-//W3C//DTD SVG 20010904//EN"
 "http://www.w3.org/TR/2001/REC-SVG-20010904/DTD/svg10.dtd">
<svg version="1.0" xmlns="http://www.w3.org/2000/svg"
 width="512.000000pt" height="512.000000pt" viewBox="0 0 512.000000 512.000000"
 preserveAspectRatio="xMidYMid meet">
<metadata>
Created by potrace 1.11, written by Peter Selinger 2001-2013
</metadata>
<g transform="translate(0.000000,512.000000) scale(0.100000,-0.100000)"
fill="#000000" stroke="none">
<path d="M770 4581 c-89 -28 -171 -96 -212 -179 l-23 -47 0 -1795 0 -1795 25
-50 c31 -64 91 -124 155 -155 l50 -25 1795 0 1795 0 48 24 c64 32 121 88 155
153 l27 53 3 1770 c3 1805 3 1801 -34 1882 -21 46 -97 119 -152 145 l-47 23
-1780 2 c-979 1 -1791 -2 -1805 -6z"/>
</g>
</svg>
